<svg id="OBJECTS" xmlns="http://www.w3.org/2000/svg" viewBox="0 0 100 100"><defs><style>.cls-1{fill:#0d7eff;}.cls-2{fill:#006dcd;}.cls-3{fill:#59c1ef;}.cls-4{fill:#e0e6fa;}.cls-5{fill:#fff;}.cls-6{fill:#f2f0f7;}</style></defs><circle class="cls-1" cx="50" cy="60.11" r="38"/><polygon class="cls-2" points="43.25 1.89 44.76 5.38 48.25 6.89 44.76 8.4 43.25 11.89 41.74 8.4 38.25 6.89 41.74 5.38 43.25 1.89"/><polygon class="cls-2" points="95.88 44.08 97.09 46.87 99.88 48.08 97.09 49.28 95.88 52.08 94.67 49.28 91.88 48.08 94.67 46.87 95.88 44.08"/><polygon class="cls-2" points="3.12 47.17 4.03 49.26 6.12 50.17 4.03 51.07 3.12 53.17 2.21 51.07 0.12 50.17 2.21 49.26 3.12 47.17"/><path class="cls-3" d="M78.91,9.75A4,4,0,1,1,74,12.62,4,4,0,0,1,78.91,9.75Z"/><path class="cls-3" d="M12,20.62a2.5,2.5,0,1,1-2.5-2.5A2.5,2.5,0,0,1,12,20.62Z"/><path class="cls-4" d="M50.72,33.07l7.1,15.11a.82.82,0,0,0,.61.46l15.88,2.42a.86.86,0,0,1,.45,1.44L63.26,64.26A.89.89,0,0,0,63,65l2.72,16.6a.81.81,0,0,1-1.17.89L50.37,74.66a.75.75,0,0,0-.74,0L35.42,82.5a.81.81,0,0,1-1.17-.89L37,65a.89.89,0,0,0-.23-.75L25.24,52.5a.86.86,0,0,1,.45-1.44l15.88-2.42a.82.82,0,0,0,.61-.46l7.1-15.11A.78.78,0,0,1,50.72,33.07Z"/><path class="cls-5" d="M50,36.56,43.67,49.43A2.12,2.12,0,0,1,42,50.63L28.23,51.94l14.53.72a2.12,2.12,0,0,0,2.08-1.45Z"/><path class="cls-6" d="M34.57,79.7l-.32,1.91a.81.81,0,0,0,1.17.89l14.21-7.84a.75.75,0,0,1,.74,0L64.58,82.5a.81.81,0,0,0,1.17-.89L63,65a.89.89,0,0,1,.23-.75L74.76,52.5a.86.86,0,0,0-.45-1.44L69,50.25C60.39,66.46,47.21,75,34.57,79.7Z"/></svg>