<svg id="OBJECTS" xmlns="http://www.w3.org/2000/svg" viewBox="0 0 100 100"><defs><style>.cls-1{fill:#0d7eff;}.cls-2{fill:#006dcd;}.cls-3{fill:#59c1ef;}.cls-4{fill:#aaa;}.cls-5{fill:#d8d7db;}.cls-6{fill:#e0e6fa;}.cls-7{fill:#00506a;}.cls-8{fill:#feffff;}.cls-9{fill:#f2f0f7;}</style></defs><circle class="cls-1" cx="50" cy="60.11" r="38"/><polygon class="cls-2" points="43.25 1.89 44.76 5.38 48.25 6.89 44.76 8.4 43.25 11.89 41.74 8.4 38.25 6.89 41.74 5.38 43.25 1.89"/><polygon class="cls-2" points="95.88 44.08 97.09 46.87 99.88 48.08 97.09 49.28 95.88 52.08 94.67 49.28 91.88 48.08 94.67 46.87 95.88 44.08"/><polygon class="cls-2" points="3.12 47.17 4.03 49.26 6.12 50.17 4.03 51.07 3.12 53.17 2.21 51.07 0.12 50.17 2.21 49.26 3.12 47.17"/><path class="cls-3" d="M78.91,9.75A4,4,0,1,1,74,12.62,4,4,0,0,1,78.91,9.75Z"/><path class="cls-3" d="M12,20.62a2.5,2.5,0,1,1-2.5-2.5A2.5,2.5,0,0,1,12,20.62Z"/><path class="cls-4" d="M25,52.41V79.53a3.17,3.17,0,0,0,3.12,3.22H71.88A3.17,3.17,0,0,0,75,79.53V52.41Z"/><path class="cls-5" d="M73.88,50.12,51.61,33.3a2.64,2.64,0,0,0-3.22,0L26.12,50.12A2.87,2.87,0,0,0,25,52.4H75A2.87,2.87,0,0,0,73.88,50.12Z"/><path class="cls-6" d="M67.66,47.89H32.45a1,1,0,0,0-1,1V77.63a1,1,0,0,0,1,1H67.66a1,1,0,0,0,1-1V48.9A1,1,0,0,0,67.66,47.89Z"/><path class="cls-7" d="M37.21,56.81H63a.52.52,0,0,0,0-1H37.21a.52.52,0,0,0,0,1Z"/><path class="cls-7" d="M63,60.18H37.21a.51.51,0,0,0,0,1H63a.51.51,0,0,0,0-1Z"/><path class="cls-7" d="M63,64.57H37.21a.52.52,0,0,0,0,1H63a.52.52,0,0,0,0-1Z"/><path class="cls-8" d="M28.12,82.75H71.93A3.11,3.11,0,0,0,75,79.59V52.41Z"/><path class="cls-9" d="M25,52.41V79.59a3.11,3.11,0,0,0,3.07,3.16H71.88Z"/></svg>